<?xml version="1.0" encoding="utf-8"?>
<?xml-stylesheet type="text/xsl" href="rss1.xsl"?>
<rss version="2.0" xmlns:atom="http://www.w3.org/2005/Atom" xmlns:content="http://purl.org/rss/1.0/modules/content/" xmlns:dc="http://purl.org/dc/elements/1.1/" xmlns:media="http://search.yahoo.com/mrss/">
<channel>
 <title>Getty</title>
 <link>http://www.gettyimg.com/</link>
 <atom:link href="http://www.gettyimg.com/" rel="self" type="application/rss+xml" />

 
                <item>
                <title><![CDATA[【HD Live Performances】WEB-DL - Taylor Swift: The Eras Tour (Extended Version) (2023) 1080p WEB-DL Dolby TrueHD 5.1 H264 IDK]]></title>
                <link><![CDATA[https://sharemania.us/threads/taylor-swift-the-eras-tour-extended-version-2023-1080p-web-dl-dolby-truehd-5-1-h264-idk.244430/]]></link>
                <description><![CDATA[<article>
<blockquote class="messageText SelectQuoteContainer ugc baseHtml">
<img src="https://i.ibb.co/C2TwRDY/maxresdefault.jpg" class="bbCodeImage LbImage" alt="[​IMG]" data-url="https://i.ibb.co/C2TwRDY/maxresdefault.jpg" style=""><br>
<b>Taylor Swift: The Eras Tour (Extended Version) (2023)</b><br>
1080p WEB-DL<br>
<br>
<b>Available Audio Tracks:</b><br>
Dolby TrueHD 5.1 - Lossless 24bit/48kHz (4172Kbps)<br>
Dolby Digital Plus with Dolby Atmos - Lossy (768Kbps)<br>
<br>
<div class="ToggleTriggerAnchor bbCodeSpoilerContainer">
<button type="button" class="button bbCodeSpoilerButton ToggleTrigger Tooltip JsOnly" data-target="> .SpoilerTarget"><span>Spoiler: <span class="SpoilerTitle">Audio Spectogram</span></span></button>
<div class="SpoilerTarget bbCodeSpoilerText"><b>Left - DDP / Right - TrueHD</b><br>
<img src="https://i.ibb.co/4jV8Kbt/spek.png" class="bbCodeImage LbImage" alt="[​IMG]" data-url="https://i.ibb.co/4jV8Kbt/spek.png" style=""></div>
</div><br>
<div class="ToggleTriggerAnchor bbCodeSpoilerContainer">
<button type="button" class="button bbCodeSpoilerButton ToggleTrigger Tooltip JsOnly" data-target="> .SpoilerTarget"><span>Spoiler: <span class="SpoilerTitle">MediaInfo</span></span></button>
<div class="SpoilerTarget bbCodeSpoilerText">General<br>
Unique ID : 99572993803428041830561933719367318070 (0x4AE90FA06FFA6FC3DE3F3666140BFA36)<br>
Complete name : Taylor.Swift.The.Eras.Tour.2023.EXTENDED.1080p.WEB-DL.TrueHD.5.1.H.264-IDK.mkv<br>
Format : Matroska<br>
Format version : Version 4<br>
File size : 18.3 GiB<br>
Duration : 3 h 0 min<br>
Overall bit rate mode : Variable<br>
Overall bit rate : 14.5 Mb/s<br>
Frame rate : 23.976 FPS<br>
Encoded date : 2024-05-15 20:01:47 UTC<br>
Writing application : mkvmerge v60.0.0 ('Are We Copies?') 64-bit<br>
Writing library : libebml v1.4.2 + libmatroska v1.6.4<br>
<br>
Video<br>
ID : 1<br>
Format : AVC<br>
Format/Info : Advanced Video Codec<br>
Format profile : High@L4<br>
Format settings : CABAC / 4 Ref Frames<br>
Format settings, CABAC : Yes<br>
Format settings, Reference frames : 4 frames<br>
Codec ID : V_MPEG4/ISO/AVC<br>
Duration : 3 h 0 min<br>
Bit rate mode : Constant<br>
Bit rate : 9 457 kb/s<br>
Nominal bit rate : 10 000 kb/s<br>
Width : 1 920 pixels<br>
Height : 800 pixels<br>
Display aspect ratio : 2.40:1<br>
Frame rate mode : Constant<br>
Frame rate : 23.976 (24000/1001) FPS<br>
Color space : YUV<br>
Chroma subsampling : 4:2:0<br>
Bit depth : 8 bits<br>
Scan type : Progressive<br>
Bits/(Pixel*Frame) : 0.257<br>
Stream size : 11.9 GiB (65%)<br>
Language : English (US)<br>
Default : Yes<br>
Forced : No<br>
Color range : Limited<br>
Color primaries : BT.709<br>
Transfer characteristics : BT.709<br>
Matrix coefficients : BT.709<br>
<br>
Audio #1<br>
ID : 2<br>
Format : MLP FBA<br>
Format/Info : Meridian Lossless Packing FBA<br>
Commercial name : Dolby TrueHD<br>
Codec ID : A_TRUEHD<br>
Duration : 3 h 0 min<br>
Bit rate mode : Variable<br>
Bit rate : 4 172 kb/s<br>
Maximum bit rate : 5 061 kb/s<br>
Channel(s) : 6 channels<br>
Channel layout : L R C LFE Ls Rs<br>
Sampling rate : 48.0 kHz<br>
Frame rate : 1 200.000 FPS (40 SPF)<br>
Compression mode : Lossless<br>
Stream size : 5.27 GiB (29%)<br>
Language : English<br>
Default : Yes<br>
Forced : No<br>
<br>
Audio #2<br>
ID : 3<br>
Format : E-AC-3 JOC<br>
Format/Info : Enhanced AC-3 with Joint Object Coding<br>
Commercial name : Dolby Digital Plus with Dolby Atmos<br>
Codec ID : A_EAC3<br>
Duration : 3 h 0 min<br>
Bit rate mode : Constant<br>
Bit rate : 768 kb/s<br>
Channel(s) : 6 channels<br>
Channel layout : L R C LFE Ls Rs<br>
Sampling rate : 48.0 kHz<br>
Frame rate : 31.250 FPS (1536 SPF)<br>
Compression mode : Lossy<br>
Delay relative to video : 19 ms<br>
Stream size : 994 MiB (5%)<br>
Language : English (US)<br>
Service kind : Complete Main<br>
Default : Yes<br>
Forced : No<br>
Complexity index : 16<br>
Number of dynamic objects : 15<br>
Bed channel count : 1 channel<br>
Bed channel configuration : LFE<br>
<br>
Text #1<br>
ID : 4<br>
Format : UTF-8<br>
Codec ID : S_TEXT/UTF8<br>
Codec ID/Info : UTF-8 Plain Text<br>
Duration : 3 h 0 min<br>
Bit rate : 74 b/s<br>
Frame rate : 0.251 FPS<br>
Count of elements : 2712<br>
Stream size : 98.3 KiB (0%)<br>
Language : English (US)<br>
Default : No<br>
Forced : No<br>
<br>
Text #2<br>
ID : 5<br>
Format : UTF-8<br>
Codec ID : S_TEXT/UTF8<br>
Codec ID/Info : UTF-8 Plain Text<br>
Duration : 3 h 0 min<br>
Bit rate : 80 b/s<br>
Frame rate : 0.270 FPS<br>
Count of elements : 2929<br>
Stream size : 107 KiB (0%)<br>
Title : SDH<br>
Language : English (US)<br>
Default : No<br>
Forced : No<br>
<br>
Text #3<br>
ID : 6<br>
Format : UTF-8<br>
Codec ID : S_TEXT/UTF8<br>
Codec ID/Info : UTF-8 Plain Text<br>
Duration : 2 h 43 min<br>
Bit rate : 5 b/s<br>
Frame rate : 0.014 FPS<br>
Count of elements : 139<br>
Stream size : 6.76 KiB (0%)<br>
Language : German (DE)<br>
Default : No<br>
Forced : No<br>
<br>
Text #4<br>
ID : 7<br>
Format : UTF-8<br>
Codec ID : S_TEXT/UTF8<br>
Codec ID/Info : UTF-8 Plain Text<br>
Duration : 3 h 0 min<br>
Bit rate : 4 b/s<br>
Frame rate : 0.012 FPS<br>
Count of elements : 132<br>
Stream size : 6.55 KiB (0%)<br>
Title : Latin American<br>
Language : Spanish (Latin America)<br>
Default : No<br>
Forced : No<br>
<br>
Text #5<br>
ID : 8<br>
Format : UTF-8<br>
Codec ID : S_TEXT/UTF8<br>
Codec ID/Info : UTF-8 Plain Text<br>
Duration : 3 h 0 min<br>
Bit rate : 4 b/s<br>
Frame rate : 0.013 FPS<br>
Count of elements : 139<br>
Stream size : 5.54 KiB (0%)<br>
Title : Brazilian<br>
Language : Portuguese (BR)<br>
Default : No<br>
Forced : No<br>
<br>
Menu<br>
00:00:00.000 : en: Disclaimer<br>
00:00:10.000 : en:Miss Americana &amp; The Heartbreak Prince<br>
00:02:54.000 : en:Cruel Summer<br>
00:06:37.000 : en:Scene 4<br>
00:09:26.000 : en:The Man<br>
00:12:45.000 : en:You Need to Calm Down<br>
00:14:30.000 : en:Lover<br>
00:20:04.000 : en:Fearless<br>
00:23:11.000 : en:You Belong With Me<br>
00:27:12.000 : en:Love Story<br>
00:31:10.000 : en:willow<br>
00:36:07.000 : en:marjorie<br>
00:39:15.000 : en:champagne problems<br>
00:45:45.000 : en:tolerate it<br>
00:51:07.000 : en:...ready for it?<br>
00:55:19.000 : en:delicate<br>
00:59:13.000 : en:don't blame me<br>
01:02:38.000 : en:look what you made me do<br>
01:06:24.000 : en:Enchanted<br>
01:10:54.000 : en:22<br>
01:14:54.000 : en:We Are Never Ever Getting Back Together<br>
01:18:13.000 : en:I Knew You Were Trouble<br>
01:20:40.000 : en:All Too Well (10 Minute Version)<br>
01:31:11.000 : en:the 1<br>
01:34:58.000 : en:betty<br>
01:41:42.000 : en:the last great american dynasty<br>
01:45:38.000 : en:august<br>
01:49:08.000 : en:illicit affairs<br>
01:50:55.000 : en:my tear ricochet<br>
01:54:59.000 : en:Style<br>
01:57:40.000 : en:Blank Space<br>
02:01:47.000 : en:Shake It Off<br>
02:05:33.000 : en:Bad Blood<br>
02:07:55.000 : en:Our Song<br>
02:12:58.000 : en:You're On Your Own, Kid<br>
02:16:37.000 : en:Scene 36<br>
02:17:24.000 : en:Lavender Haze<br>
02:21:39.000 : en:Scene 38<br>
02:25:04.000 : en:Midnight Rain<br>
02:27:54.000 : en:Vigilante Shit<br>
02:30:43.000 : en:Bejeweled<br>
02:34:04.000 : en:Mastermind<br>
02:37:26.000 : en:Karma<br>
02:43:23.000 : en:Extra Performances - The Archer<br>
02:47:18.000 : en:Extra Performances - Wildest Dream<br>
02:49:44.000 : en:Extra Performances - Long Live<br>
02:55:29.000 : en:End Credits</div>
</div><br>
<div class="bbCodeBlock bbCodeVfcHH HiddenContent">
<div class="attribution type">Hidden Content:</div>
<blockquote>You must either reply or click 'Like' to see the hidden information contained here.</blockquote>
</div>
<div class="messageTextEndMarker">&nbsp;</div>
</blockquote>
</article>]]></description>
                <author><![CDATA[yonatand1230]]></author>
                </item>

                
                <item>
                <title><![CDATA[【Requests】[REQ AUD] - Juan Luis Guerra | Some albums | FLAC]]></title>
                <link><![CDATA[https://sharemania.us/threads/juan-luis-guerra-some-albums-flac.244429/]]></link>
                <description><![CDATA[<article>
<blockquote class="messageText SelectQuoteContainer ugc baseHtml">
Thanks you so much.
<div class="messageTextEndMarker">&nbsp;</div>
</blockquote>
</article>]]></description>
                <author><![CDATA[Darkvidian]]></author>
                </item>

                </channel></rss>